<svg width="9" height="12" viewBox="0 0 9 12" fill="none" xmlns="http://www.w3.org/2000/svg">
<path d="M1.95951 12.0006C1.64548 11.9987 1.33538 11.9306 1.04951 11.8006C0.740338 11.6643 0.476925 11.4419 0.290734 11.16C0.104543 10.878 0.00344477 10.5484 -0.000488281 10.2106V1.79059C0.00344477 1.45273 0.104543 1.12315 0.290734 0.841207C0.476925 0.559261 0.740338 0.336868 1.04951 0.200588C1.40525 0.0325553 1.80104 -0.0321638 2.19178 0.0138051C2.58252 0.059774 2.95248 0.214582 3.25951 0.460588L8.35951 4.67059C8.55951 4.8298 8.72102 5.03207 8.83203 5.26234C8.94304 5.49261 9.00069 5.74496 9.00069 6.00059C9.00069 6.25622 8.94304 6.50856 8.83203 6.73883C8.72102 6.9691 8.55951 7.17137 8.35951 7.33059L3.25951 11.5406C2.89189 11.8387 2.43282 12.0012 1.95951 12.0006Z" fill="white"/>
</svg>
