<svg width="10" height="13" viewBox="0 0 10 13" fill="none" xmlns="http://www.w3.org/2000/svg">
<path d="M1.96 12.5007C1.64597 12.4988 1.33587 12.4307 1.05 12.3007C0.740826 12.1644 0.477413 11.942 0.291223 11.6601C0.105032 11.3781 0.00393305 11.0485 0 10.7107V2.29068C0.00393305 1.95283 0.105032 1.62324 0.291223 1.3413C0.477413 1.05935 0.740826 0.836959 1.05 0.700679C1.40574 0.532647 1.80153 0.467928 2.19227 0.513897C2.583 0.559866 2.95297 0.714674 3.26 0.96068L8.36 5.17068C8.55999 5.3299 8.72151 5.53217 8.83252 5.76244C8.94353 5.99271 9.00118 6.24505 9.00118 6.50068C9.00118 6.75631 8.94353 7.00865 8.83252 7.23892C8.72151 7.46919 8.55999 7.67146 8.36 7.83068L3.26 12.0407C2.89238 12.3388 2.43331 12.5012 1.96 12.5007Z" fill="#0D8DDD"/>
</svg>
