<svg width="23" height="24" viewBox="0 0 23 24" fill="none" xmlns="http://www.w3.org/2000/svg">
<path d="M15.3814 22.783V18.8137C15.4199 18.3247 15.3538 17.833 15.1876 17.3715C15.0214 16.9099 14.7588 16.4891 14.4173 16.1368C17.6378 15.7779 21.0225 14.5573 21.0225 8.95734C21.0222 7.52537 20.4714 6.14831 19.484 5.11119C19.9515 3.85837 19.9185 2.4736 19.3917 1.24452C19.3917 1.24452 18.1814 0.885547 15.3814 2.76247C13.0307 2.12536 10.5527 2.12536 8.20195 2.76247C5.40195 0.885547 4.19169 1.24452 4.19169 1.24452C3.6649 2.4736 3.63184 3.85837 4.09938 5.11119C3.10464 6.15601 2.55325 7.54551 2.56092 8.98811C2.56092 14.5471 5.94554 15.7676 9.16605 16.1676C8.82861 16.5163 8.56837 16.9321 8.40227 17.388C8.23616 17.8439 8.16791 18.3297 8.20195 18.8137V22.783M8.20195 19.7061C3.07374 21.2445 3.07374 17.142 1.02246 16.6291L8.20195 19.7061Z" stroke="#53616A" stroke-width="2" stroke-linecap="round" stroke-linejoin="round"/>
</svg>
