<svg width="148" height="150" viewBox="0 0 148 150" fill="none" xmlns="http://www.w3.org/2000/svg">
<g filter="url(#filter0_d)">
<g clip-path="url(#clip0)">
<rect x="0.699951" y="0.5" width="145" height="147" rx="1" fill="white"/>
<rect x="1.19995" y="1" width="144" height="15" fill="#ECF7FE"/>
<rect x="4.69995" y="7.5" width="22" height="2" fill="#AEC2D1"/>
<g clip-path="url(#clip1)">
<rect x="67.7" y="7.5" width="22" height="2" fill="#AEC2D1"/>
<rect x="93.7" y="7.5" width="22" height="2" fill="#AEC2D1"/>
<rect x="119.7" y="7.5" width="22" height="2" fill="#AEC2D1"/>
</g>
<rect x="1.19995" y="1" width="144" height="15" stroke="#84949F"/>
<rect x="1.19995" y="18" width="144" height="112" fill="#ECF7FE"/>
<g clip-path="url(#clip2)">
<rect x="4.69995" y="46" width="58" height="4" fill="#AEC2D1"/>
<rect x="4.69995" y="54" width="72" height="4" fill="#AEC2D1"/>
<rect x="4.69995" y="62" width="34" height="4" fill="#AEC2D1"/>
</g>
<g clip-path="url(#clip3)">
<rect x="4.69995" y="82" width="58" height="4" fill="#AEC2D1"/>
<rect x="4.69995" y="90" width="72" height="4" fill="#AEC2D1"/>
<rect x="4.69995" y="98" width="34" height="4" fill="#AEC2D1"/>
</g>
<rect x="1.19995" y="18" width="144" height="112" stroke="#84949F"/>
<rect x="1.19995" y="132" width="144" height="15" fill="#ECF7FE"/>
<rect x="1.19995" y="132" width="144" height="15" stroke="#84949F"/>
</g>
</g>
<defs>
<filter id="filter0_d" x="0.699951" y="0.5" width="147" height="149" filterUnits="userSpaceOnUse" color-interpolation-filters="sRGB">
<feFlood flood-opacity="0" result="BackgroundImageFix"/>
<feColorMatrix in="SourceAlpha" type="matrix" values="0 0 0 0 0 0 0 0 0 0 0 0 0 0 0 0 0 0 127 0"/>
<feOffset dx="2" dy="2"/>
<feColorMatrix type="matrix" values="0 0 0 0 0.9076 0 0 0 0 0.9332 0 0 0 0 0.9524 0 0 0 1 0"/>
<feBlend mode="normal" in2="BackgroundImageFix" result="effect1_dropShadow"/>
<feBlend mode="normal" in="SourceGraphic" in2="effect1_dropShadow" result="shape"/>
</filter>
<clipPath id="clip0">
<rect x="0.699951" y="0.5" width="145" height="147" rx="1" fill="white"/>
</clipPath>
<clipPath id="clip1">
<rect width="107" height="14" fill="white" transform="translate(34.7 1.5)"/>
</clipPath>
<clipPath id="clip2">
<rect width="137" height="20" fill="white" transform="translate(4.69995 46)"/>
</clipPath>
<clipPath id="clip3">
<rect width="137" height="20" fill="white" transform="translate(4.69995 82)"/>
</clipPath>
</defs>
</svg>
