<svg width="17" height="18" viewBox="0 0 17 18" fill="none" xmlns="http://www.w3.org/2000/svg">
<path fill-rule="evenodd" clip-rule="evenodd" d="M2.6001 8.20001C2.6001 5.21768 5.01777 2.80002 8.00013 2.80002C10.9825 2.80002 13.4002 5.21768 13.4002 8.20001C13.4002 9.64959 12.829 10.9658 11.8994 11.9358C11.8695 11.9595 11.8406 11.9852 11.8129 12.0129C11.7852 12.0406 11.7595 12.0694 11.7358 12.0994C10.7658 13.0289 9.44967 13.6 8.00013 13.6C5.01777 13.6 2.6001 11.1823 2.6001 8.20001ZM12.4778 14.092C11.2347 15.0382 9.683 15.6 8.00013 15.6C3.91321 15.6 0.600098 12.2869 0.600098 8.20001C0.600098 4.1131 3.91321 0.800018 8.00013 0.800018C12.087 0.800018 15.4002 4.1131 15.4002 8.20001C15.4002 9.88294 14.8384 11.4346 13.8921 12.6778L16.7071 15.4929C17.0977 15.8834 17.0977 16.5166 16.7071 16.9071C16.3166 17.2976 15.6835 17.2976 15.2929 16.9071L12.4778 14.092Z" fill="#53616A"/>
</svg>
